<svg width="23" height="23" viewBox="0 0 23 23" fill="none" xmlns="http://www.w3.org/2000/svg">
<path fill-rule="evenodd" clip-rule="evenodd" d="M6.69755 0.068374C7.91274 0.0124316 8.30019 0 11.3957 0C14.4911 0 14.8786 0.0134676 16.0928 0.068374C17.3069 0.12328 18.1357 0.317007 18.8609 0.597755C19.6202 0.884718 20.3092 1.33329 20.8789 1.91344C21.4591 2.48218 21.9066 3.17007 22.1925 3.93047C22.4743 4.65565 22.667 5.48443 22.723 6.69651C22.7789 7.91377 22.7913 8.30123 22.7913 11.3957C22.7913 14.4911 22.7779 14.8786 22.723 16.0938C22.6681 17.3059 22.4743 18.1347 22.1925 18.8598C21.9066 19.6203 21.4583 20.3094 20.8789 20.8789C20.3092 21.4591 19.6202 21.9066 18.8609 22.1925C18.1357 22.4743 17.3069 22.667 16.0948 22.723C14.8786 22.7789 14.4911 22.7913 11.3957 22.7913C8.30019 22.7913 7.91274 22.7779 6.69755 22.723C5.48546 22.6681 4.65668 22.4743 3.93151 22.1925C3.17102 21.9066 2.482 21.4583 1.9124 20.8789C1.33265 20.3098 0.884008 19.6212 0.597755 18.8609C0.317007 18.1357 0.124316 17.3069 0.068374 16.0948C0.0124316 14.8776 0 14.4901 0 11.3957C0 8.30019 0.0134676 7.91274 0.068374 6.69858C0.12328 5.48443 0.317007 4.65565 0.597755 3.93047C0.884431 3.17015 1.33342 2.48147 1.91344 1.9124C2.48223 1.33278 3.17056 0.884142 3.93047 0.597755C4.65565 0.317007 5.48443 0.124316 6.69651 0.068374H6.69755ZM16.0006 2.11959C14.7988 2.06469 14.4383 2.05329 11.3957 2.05329C8.35303 2.05329 7.99251 2.06469 6.79078 2.11959C5.67919 2.17036 5.07625 2.3558 4.6743 2.51223C4.14284 2.71942 3.76264 2.96495 3.36379 3.36379C2.98571 3.73162 2.69474 4.1794 2.51223 4.6743C2.3558 5.07625 2.17036 5.67919 2.11959 6.79078C2.06469 7.99251 2.05329 8.35303 2.05329 11.3957C2.05329 14.4383 2.06469 14.7988 2.11959 16.0006C2.17036 17.1122 2.3558 17.7151 2.51223 18.117C2.69456 18.6112 2.98567 19.0598 3.36379 19.4275C3.73156 19.8057 4.18014 20.0968 4.6743 20.2791C5.07625 20.4355 5.67919 20.621 6.79078 20.6717C7.99251 20.7267 8.35199 20.738 11.3957 20.738C14.4393 20.738 14.7988 20.7267 16.0006 20.6717C17.1122 20.621 17.7151 20.4355 18.117 20.2791C18.6485 20.0719 19.0287 19.8264 19.4275 19.4275C19.8057 19.0598 20.0968 18.6112 20.2791 18.117C20.4355 17.7151 20.621 17.1122 20.6717 16.0006C20.7267 14.7988 20.738 14.4383 20.738 11.3957C20.738 8.35303 20.7267 7.99251 20.6717 6.79078C20.621 5.67919 20.4355 5.07625 20.2791 4.6743C20.0719 4.14284 19.8264 3.76264 19.4275 3.36379C19.0597 2.98574 18.6119 2.69478 18.117 2.51223C17.7151 2.3558 17.1122 2.17036 16.0006 2.11959ZM9.94013 14.9086C10.753 15.247 11.6582 15.2927 12.501 15.0379C13.3438 14.783 14.072 14.2435 14.5612 13.5114C15.0504 12.7793 15.2703 11.9001 15.1832 11.0239C15.0962 10.1477 14.7077 9.32888 14.084 8.70733C13.6864 8.31001 13.2057 8.00578 12.6765 7.81655C12.1472 7.62731 11.5826 7.55777 11.0232 7.61295C10.4639 7.66812 9.92371 7.84662 9.44163 8.13561C8.95954 8.42459 8.54752 8.81688 8.23524 9.28421C7.92295 9.75154 7.71817 10.2823 7.63563 10.8383C7.55309 11.3943 7.59485 11.9616 7.7579 12.4995C7.92095 13.0374 8.20124 13.5325 8.57858 13.949C8.95592 14.3656 9.42093 14.6934 9.94013 14.9086ZM7.25386 7.25386C7.79777 6.70995 8.44349 6.2785 9.15414 5.98414C9.86479 5.68977 10.6265 5.53827 11.3957 5.53827C12.1649 5.53827 12.9265 5.68977 13.6372 5.98414C14.3479 6.2785 14.9936 6.70995 15.5375 7.25386C16.0814 7.79777 16.5128 8.44349 16.8072 9.15414C17.1016 9.86479 17.2531 10.6265 17.2531 11.3957C17.2531 12.1649 17.1016 12.9265 16.8072 13.6372C16.5128 14.3479 16.0814 14.9936 15.5375 15.5375C14.439 16.636 12.9491 17.2531 11.3957 17.2531C9.84219 17.2531 8.35234 16.636 7.25386 15.5375C6.15539 14.439 5.53827 12.9491 5.53827 11.3957C5.53827 9.84219 6.15539 8.35234 7.25386 7.25386ZM18.5522 6.41058C18.6869 6.28344 18.7948 6.13054 18.8695 5.96094C18.9441 5.79135 18.984 5.6085 18.9867 5.42323C18.9894 5.23796 18.9549 5.05403 18.8852 4.88233C18.8155 4.71063 18.7121 4.55465 18.5811 4.42363C18.4501 4.29261 18.2941 4.18921 18.1224 4.11955C17.9507 4.04989 17.7668 4.01539 17.5815 4.0181C17.3962 4.0208 17.2134 4.06064 17.0438 4.13528C16.8742 4.20991 16.7213 4.31781 16.5942 4.4526C16.3469 4.71473 16.2115 5.06291 16.2168 5.42323C16.222 5.78355 16.3675 6.12764 16.6223 6.38245C16.8771 6.63726 17.2212 6.78273 17.5815 6.78798C17.9418 6.79324 18.29 6.65786 18.5522 6.41058Z" fill="#7C22B9"/>
</svg>
