<svg width="20" height="23" viewBox="0 0 20 23" fill="none" xmlns="http://www.w3.org/2000/svg">
<path d="M10.5053 0.0194073C11.7607 0 13.0088 0.0115006 14.2556 0C14.3311 1.46705 14.8591 2.96141 15.9339 3.99862C17.0066 5.06171 18.5238 5.54833 20 5.71293V9.5721C18.6166 9.52682 17.2267 9.23931 15.9713 8.64415C15.4246 8.39688 14.9153 8.07846 14.4167 7.75285C14.4102 10.5533 14.4282 13.3501 14.3987 16.139C14.3239 17.4788 13.8815 18.8121 13.1016 19.9162C11.847 21.7541 9.66936 22.9523 7.43274 22.9897C6.06083 23.0681 4.69037 22.6943 3.52134 22.0057C1.58398 20.8643 0.220714 18.7748 0.0221584 16.5321C-0.00285184 16.0572 -0.00669248 15.5814 0.0106479 15.1061C0.183305 13.2825 1.08616 11.538 2.48756 10.3513C4.076 8.96904 6.30111 8.31063 8.38451 8.70021C8.40393 10.1198 8.3471 11.538 8.3471 12.9576C7.39533 12.65 6.28313 12.7362 5.4515 13.3134C4.84306 13.7139 4.38326 14.3031 4.1429 14.9903C3.94435 15.4762 4.00118 16.016 4.01269 16.5321C4.24074 18.1048 5.75437 19.4267 7.37015 19.2837C8.44134 19.2722 9.46793 18.6511 10.0262 17.7419C10.2068 17.4234 10.4089 17.0978 10.4197 16.7233C10.5139 15.009 10.4765 13.3019 10.488 11.5876C10.496 7.7241 10.4765 3.87139 10.506 0.0201261L10.5053 0.0194073Z" fill="#7C22B9"/>
</svg>
