<svg width="39" height="40" viewBox="0 0 39 40" fill="none" xmlns="http://www.w3.org/2000/svg">
<path d="M17.7084 23.875C23.0834 23.875 32.0417 31.0417 32.0417 31.0417V2.375C32.0417 2.375 23.0834 9.54167 17.7084 9.54167V23.875ZM6.95837 23.875L12.3334 38.2083H19.5L14.125 23.875H6.95837ZM32.0417 22.0833C32.7476 22.0833 33.4465 21.9443 34.0986 21.6742C34.7508 21.4041 35.3433 21.0081 35.8424 20.509C36.3415 20.0099 36.7374 19.4174 37.0076 18.7653C37.2777 18.1131 37.4167 17.4142 37.4167 16.7083C37.4167 16.0025 37.2777 15.3035 37.0076 14.6514C36.7374 13.9993 36.3415 13.4067 35.8424 12.9076C35.3433 12.4085 34.7508 12.0126 34.0986 11.7425C33.4465 11.4724 32.7476 11.3333 32.0417 11.3333V22.0833ZM17.7084 31.0417C19.5 31.0417 23.0834 29.25 23.0834 25.6667L17.7084 31.0417ZM1.58337 16.7083C1.58337 11.1345 4.79225 9.54167 8.75004 9.54167H17.7084V23.875H8.75004C4.79225 23.875 1.58337 22.2822 1.58337 16.7083Z" stroke="white" stroke-width="2"/>
</svg>
