<svg width="27" height="27" viewBox="0 0 27 27" fill="none" xmlns="http://www.w3.org/2000/svg">
<path fill-rule="evenodd" clip-rule="evenodd" d="M8.02025 0.287758C9.43762 0.222508 9.88954 0.208008 13.5 0.208008C17.1105 0.208008 17.5625 0.223716 18.9786 0.287758C20.3948 0.351799 21.3615 0.577758 22.2073 0.905216C23.093 1.23992 23.8965 1.76313 24.5611 2.4398C25.2378 3.10317 25.7598 3.90551 26.0933 4.79242C26.422 5.63826 26.6467 6.60493 26.712 8.01867C26.7772 9.43847 26.7917 9.89038 26.7917 13.4997C26.7917 17.1102 26.776 17.5621 26.712 18.9795C26.6479 20.3932 26.422 21.3599 26.0933 22.2057C25.7598 23.0927 25.2369 23.8964 24.5611 24.5608C23.8965 25.2374 23.093 25.7594 22.2073 26.0929C21.3615 26.4216 20.3948 26.6463 18.981 26.7116C17.5625 26.7768 17.1105 26.7913 13.5 26.7913C9.88954 26.7913 9.43762 26.7756 8.02025 26.7116C6.6065 26.6476 5.63983 26.4216 4.794 26.0929C3.90699 25.7594 3.10332 25.2365 2.43896 24.5608C1.76275 23.897 1.23946 23.0937 0.905582 22.2069C0.578124 21.3611 0.353374 20.3944 0.288124 18.9807C0.222874 17.5609 0.208374 17.109 0.208374 13.4997C0.208374 9.88917 0.224082 9.43726 0.288124 8.02109C0.352166 6.60492 0.578124 5.63826 0.905582 4.79242C1.23996 3.90561 1.76364 3.10234 2.44017 2.43859C3.10359 1.76253 3.90644 1.23925 4.79279 0.905216C5.63862 0.577758 6.60529 0.353008 8.01904 0.287758H8.02025ZM18.8711 2.68026C17.4694 2.61622 17.0489 2.60292 13.5 2.60292C9.95117 2.60292 9.53067 2.61622 8.129 2.68026C6.83246 2.73947 6.12921 2.95576 5.66037 3.13822C5.0405 3.37988 4.59704 3.66626 4.13183 4.13147C3.69085 4.56049 3.35147 5.08277 3.13858 5.66001C2.95612 6.12884 2.73983 6.83209 2.68062 8.12863C2.61658 9.5303 2.60329 9.9508 2.60329 13.4997C2.60329 17.0485 2.61658 17.469 2.68062 18.8707C2.73983 20.1673 2.95612 20.8705 3.13858 21.3393C3.35125 21.9157 3.69079 22.4389 4.13183 22.8679C4.56079 23.3089 5.084 23.6485 5.66037 23.8611C6.12921 24.0436 6.83246 24.2599 8.129 24.3191C9.53067 24.3831 9.94996 24.3964 13.5 24.3964C17.0501 24.3964 17.4694 24.3831 18.8711 24.3191C20.1676 24.2599 20.8709 24.0436 21.3397 23.8611C21.9596 23.6195 22.403 23.3331 22.8682 22.8679C23.3093 22.4389 23.6488 21.9157 23.8615 21.3393C24.044 20.8705 24.2603 20.1673 24.3195 18.8707C24.3835 17.469 24.3968 17.0485 24.3968 13.4997C24.3968 9.9508 24.3835 9.5303 24.3195 8.12863C24.2603 6.83209 24.044 6.12884 23.8615 5.66001C23.6198 5.04013 23.3335 4.59667 22.8682 4.13147C22.4392 3.69051 21.9169 3.35114 21.3397 3.13822C20.8709 2.95576 20.1676 2.73947 18.8711 2.68026ZM11.8023 17.5971C12.7505 17.9918 13.8062 18.0451 14.7892 17.7478C15.7723 17.4506 16.6216 16.8213 17.1922 15.9674C17.7628 15.1135 18.0193 14.088 17.9178 13.066C17.8163 12.044 17.3631 11.089 16.6357 10.364C16.172 9.90063 15.6113 9.54578 14.9939 9.32506C14.3766 9.10434 13.7181 9.02324 13.0656 9.08759C12.4132 9.15194 11.7832 9.36014 11.2209 9.69721C10.6586 10.0343 10.178 10.4918 9.81378 11.0369C9.44954 11.582 9.21069 12.2011 9.11441 12.8495C9.01814 13.498 9.06685 14.1598 9.25703 14.7872C9.4472 15.4146 9.77412 15.992 10.2142 16.4779C10.6544 16.9638 11.1967 17.346 11.8023 17.5971ZM8.66912 8.66876C9.30353 8.03435 10.0567 7.53112 10.8856 7.18778C11.7145 6.84444 12.6029 6.66773 13.5 6.66773C14.3972 6.66773 15.2856 6.84444 16.1145 7.18778C16.9434 7.53112 17.6966 8.03435 18.331 8.66876C18.9654 9.30316 19.4686 10.0563 19.8119 10.8852C20.1553 11.7141 20.332 12.6025 20.332 13.4997C20.332 14.3969 20.1553 15.2853 19.8119 16.1141C19.4686 16.943 18.9654 17.6962 18.331 18.3306C17.0497 19.6118 15.312 20.3316 13.5 20.3316C11.6881 20.3316 9.95036 19.6118 8.66912 18.3306C7.38789 17.0494 6.66809 15.3116 6.66809 13.4997C6.66809 11.6877 7.38789 9.95 8.66912 8.66876ZM21.8472 7.68517C22.0044 7.53687 22.1303 7.35854 22.2173 7.16073C22.3044 6.96291 22.3509 6.74965 22.354 6.53355C22.3572 6.31745 22.3169 6.10292 22.2357 5.90265C22.1544 5.70239 22.0338 5.52046 21.881 5.36764C21.7282 5.21482 21.5462 5.09421 21.346 5.01297C21.1457 4.93172 20.9312 4.89148 20.7151 4.89463C20.499 4.89778 20.2857 4.94426 20.0879 5.03131C19.8901 5.11836 19.7118 5.24422 19.5635 5.40142C19.275 5.70717 19.1171 6.11328 19.1233 6.53355C19.1294 6.95382 19.2991 7.35515 19.5963 7.65236C19.8935 7.94957 20.2948 8.11924 20.7151 8.12537C21.1354 8.1315 21.5415 7.97359 21.8472 7.68517Z" fill="white"/>
</svg>
